<svg version="1.1" id="Layer_1" xmlns="http://www.w3.org/2000/svg" xmlns:xlink="http://www.w3.org/1999/xlink" x="0px" y="0px"
	 width="100%" viewBox="0 0 577 433" enable-background="new 0 0 577 433" xml:space="preserve">
<path fill="#000000" opacity="1.000000" stroke="none" 
	d="
M292.000000,434.000000 
	C194.666687,434.000000 97.833382,434.000000 1.000052,434.000000 
	C1.000035,289.666718 1.000035,145.333450 1.000017,1.000129 
	C193.333237,1.000086 385.666473,1.000086 577.999756,1.000043 
	C577.999878,145.333191 577.999878,289.666382 577.999939,433.999786 
	C482.833344,434.000000 387.666656,434.000000 292.000000,434.000000 
M212.943893,309.277313 
	C212.049789,308.489532 211.122208,306.993683 210.267227,307.034119 
	C206.125534,307.229858 205.838364,304.790405 205.904129,301.661255 
	C205.980270,298.039185 205.798737,294.411713 205.136429,290.312927 
	C203.834488,290.253265 202.532547,290.193604 200.957428,290.121429 
	C200.957428,293.932587 200.957428,297.549042 200.957443,301.165527 
	C200.957443,312.237213 200.958328,312.244354 211.857849,310.891876 
	C212.238342,310.844635 212.564255,310.357666 212.943893,309.277313 
M397.301361,290.265503 
	C395.913391,290.265503 394.525391,290.265503 392.986938,290.265503 
	C392.986938,296.685699 392.929382,302.670135 393.043640,308.651306 
	C393.062683,309.646423 393.904785,311.489502 394.238281,311.460602 
	C395.465668,311.354248 396.639069,310.625153 397.910858,309.250244 
	C398.212982,302.550293 399.260468,301.858978 406.905273,303.612091 
	C406.905273,305.176849 406.704773,306.852661 406.969513,308.451385 
	C407.176392,309.700592 407.960724,310.854187 408.488464,312.050232 
	C409.301544,310.861938 410.753540,309.706360 410.816345,308.479645 
	C411.079437,303.340118 410.902405,298.179077 410.933746,293.026245 
	C410.955475,289.453766 409.132233,289.406982 406.529816,290.446777 
	C406.675537,291.139221 406.834534,291.622894 406.872284,292.115875 
	C407.281311,297.459564 406.279144,298.709442 400.951477,298.758636 
	C396.272247,298.801849 398.655182,294.975464 397.989502,292.836975 
	C397.796753,292.217804 397.861420,291.518494 397.301361,290.265503 
M314.730042,266.674225 
	C309.385223,267.440155 304.049194,268.779388 298.693848,268.861694 
	C284.128662,269.085541 269.956482,265.998749 255.978226,262.298279 
	C247.510483,260.056580 239.725708,261.042969 232.050735,265.450623 
	C233.820847,266.269226 235.655975,266.540497 237.373459,266.206635 
	C240.054108,265.685547 242.807281,263.779938 245.263641,264.163818 
	C256.495300,265.918915 267.623566,268.325348 278.809509,270.386292 
	C290.719971,272.580719 302.631927,273.194458 314.527100,270.130615 
	C332.740692,265.439301 346.355865,253.835419 358.845245,240.606628 
	C363.024139,236.180374 364.206726,229.335526 361.796906,226.305405 
	C358.302582,221.911606 351.578430,221.578323 346.526276,225.548553 
	C342.650299,212.383972 334.548584,207.987396 321.300110,211.504669 
	C319.098694,204.434708 316.892303,201.922607 310.148468,198.607040 
	C308.003632,197.552536 306.273895,196.228210 306.960846,193.317245 
	C307.845001,189.570709 308.538300,185.779129 309.318634,181.983551 
	C325.589905,186.603714 341.688721,174.641068 347.482605,162.804535 
	C353.427765,150.659027 349.991364,131.762421 341.263489,125.777756 
	C340.978058,126.243439 340.468628,126.764153 340.313782,127.374794 
	C338.568298,134.257996 333.582733,138.267944 328.003662,142.021530 
	C319.016693,148.067932 310.398895,154.585495 307.192535,165.922485 
	C307.273651,158.385086 309.569458,151.424820 307.452484,143.552750 
	C304.672760,133.216278 298.817230,126.067093 289.885712,122.248367 
	C277.081299,116.773750 263.819061,116.766388 251.259171,124.264458 
	C248.336884,126.009018 248.118652,127.260735 251.029617,129.064285 
	C253.518677,130.606415 255.897156,132.326202 258.374329,133.888489 
	C266.008667,138.703293 270.229248,146.410110 274.806335,153.696259 
	C280.942200,163.463760 288.687408,169.104141 300.831207,166.247437 
	C301.434265,166.105591 303.234772,168.024857 303.285370,169.043594 
	C303.685638,177.099045 303.932922,185.170212 303.854889,193.232941 
	C303.842560,194.507111 302.158325,196.027344 300.901855,196.977081 
	C297.408905,199.617401 292.856842,201.377441 290.418518,204.721420 
	C288.584229,207.236984 287.782806,206.656052 285.594177,206.322830 
	C282.118134,205.793564 277.830811,204.792923 275.116333,206.262726 
	C269.377350,209.370163 263.943329,211.811203 257.352142,210.056030 
	C257.205017,210.016830 257.027008,210.109589 256.862244,210.118286 
	C247.737793,210.600372 239.721329,214.415482 232.161545,219.019012 
	C228.721542,221.113815 223.635956,222.024796 222.800003,228.205139 
	C224.652557,227.805969 226.150192,227.816452 227.286499,227.180878 
	C232.248627,224.405334 237.011932,221.267014 242.020264,218.582855 
	C253.280075,212.548248 264.107605,212.247452 274.942932,220.284317 
	C281.827423,225.390762 289.459442,229.482590 298.275238,230.766205 
	C302.250732,231.345078 306.318909,232.175827 309.968353,233.760071 
	C312.036865,234.658020 314.676147,237.361923 314.609802,239.162216 
	C314.545898,240.895325 311.568878,243.480850 309.454498,244.003387 
	C302.351807,245.758759 295.102600,246.994858 287.731354,244.942581 
	C280.622406,242.963303 273.461273,240.923859 265.783966,244.342529 
	C266.759369,245.497482 267.965302,246.189514 269.217957,246.288177 
	C273.603821,246.633636 278.110809,246.252029 282.378387,247.109253 
	C289.709839,248.581863 296.670715,250.838638 304.509460,249.143127 
	C318.675873,246.078995 332.039429,241.518616 343.750610,232.773483 
	C346.491608,230.726669 349.016418,228.272156 352.015076,226.736008 
	C353.634979,225.906174 356.624603,225.880524 357.909821,226.883820 
	C358.864563,227.629166 358.759583,230.985886 357.924194,232.528152 
	C355.691498,236.650177 353.448639,241.121033 350.068726,244.201141 
	C339.819824,253.541092 328.937714,262.139801 314.730042,266.674225 
M332.594086,310.888245 
	C331.192474,308.190918 329.790863,305.493591 328.389252,302.796265 
	C328.869720,302.854645 329.350189,302.913025 329.830658,302.971405 
	C330.237305,299.887451 331.948059,296.152039 330.796356,293.846558 
	C327.814026,287.876282 321.782928,290.078308 316.773285,290.043884 
	C316.773285,296.551880 316.695801,302.795563 316.849915,309.033478 
	C316.875488,310.067261 317.912750,311.076050 318.482483,312.096375 
	C319.593018,311.215515 321.279449,310.539734 321.682831,309.407074 
	C322.332336,307.583099 322.135284,305.457672 322.391815,302.265778 
	C324.318695,305.078583 325.961365,306.555389 326.415375,308.335358 
	C327.299011,311.799835 329.316437,312.134613 332.594086,310.888245 
M255.647614,308.043945 
	C258.462585,303.266418 259.402252,298.490417 255.433105,293.843994 
	C250.991470,288.644379 245.211121,289.831879 239.737686,290.067780 
	C239.737686,297.529999 239.737686,304.430664 239.737686,311.804230 
	C245.172974,311.943115 250.454605,312.042938 255.647614,308.043945 
M292.967926,295.614014 
	C290.635437,302.706573 292.019531,308.040131 296.533905,310.368591 
	C300.714539,312.524872 304.626190,312.623688 308.656342,310.008179 
	C313.576874,306.814880 313.539337,301.937653 312.656525,297.225159 
	C311.853241,292.936951 308.298401,290.510345 304.149017,290.015747 
	C299.766876,289.493408 295.056091,289.299469 292.967926,295.614014 
M271.249481,289.885254 
	C262.456635,289.903107 257.272491,298.588226 261.214752,306.696655 
	C263.592102,311.586365 269.803345,313.093750 276.304932,310.358826 
	C280.953308,308.403473 283.138794,302.638184 281.407074,297.691040 
	C279.815094,293.143097 276.462402,290.980438 271.249481,289.885254 
M435.920410,303.957672 
	C435.899231,302.625641 435.893616,301.293152 435.854218,299.961670 
	C435.690765,294.436676 433.207794,290.852936 427.989746,290.094269 
	C424.048492,289.521240 419.641327,288.973816 416.934509,293.367767 
	C414.138031,297.907349 414.326599,304.225647 417.097412,307.712982 
	C421.946075,313.815521 430.690155,314.078369 435.920410,303.957672 
M196.960007,311.625305 
	C197.260498,311.064697 197.946945,310.366760 197.803650,309.963989 
	C195.592529,303.747925 193.419174,297.507904 190.827896,291.448425 
	C190.423782,290.503418 187.885086,289.844757 186.546478,290.113770 
	C185.365646,290.351013 183.994293,291.898254 183.551178,293.162811 
	C181.497742,299.022888 179.738449,304.986084 177.565170,311.893219 
	C179.494339,311.289795 181.888290,311.286224 182.828400,310.115326 
	C186.501007,305.541168 189.970779,305.490082 193.073837,310.253357 
	C193.655304,311.145935 195.173767,311.428131 196.960007,311.625305 
M371.498260,298.052216 
	C369.096100,290.071594 368.609894,289.633362 363.311157,290.135437 
	C360.823151,296.157837 358.344055,301.911285 356.116455,307.760498 
	C355.673553,308.923401 356.193665,310.453064 356.269684,311.813599 
	C357.667419,311.263336 359.572693,311.112183 360.374176,310.092987 
	C363.673492,305.897491 366.779388,305.629669 370.511719,309.323792 
	C371.716187,310.515961 373.526184,311.096405 375.059174,311.956665 
	C375.356903,311.538483 375.654633,311.120270 375.952362,310.702087 
	C374.562866,306.730560 373.173401,302.759064 371.498260,298.052216 
M340.000549,293.347931 
	C339.727478,289.491913 337.406738,289.443909 333.953461,290.417145 
	C336.298676,296.622253 338.514557,302.665131 340.900024,308.640350 
	C341.360565,309.793945 342.594147,311.592682 343.281189,311.510254 
	C344.876801,311.318909 347.263092,310.518860 347.731201,309.334198 
	C350.177246,303.143768 352.124298,296.756165 354.319824,290.213959 
	C351.166565,289.819550 349.207672,289.157471 348.592468,292.849335 
	C347.984344,296.498474 346.087891,299.932922 344.378479,304.463867 
	C342.713409,300.364502 341.446106,297.244354 340.000549,293.347931 
M216.289825,291.893494 
	C216.289825,298.427307 216.289825,304.961151 216.289825,312.163971 
	C218.862717,312.163971 221.668884,312.428009 224.383148,312.043396 
	C225.590927,311.872284 226.613510,310.393982 227.720154,309.509003 
	C226.634766,308.641785 225.580536,307.731323 224.454758,306.920166 
	C223.431168,306.182587 222.329758,305.553009 221.262665,304.875824 
	C222.360962,304.153442 223.475006,303.453644 224.553024,302.702118 
	C225.565903,301.996002 226.540695,301.235229 227.532257,300.498535 
	C226.228592,299.278748 225.700699,299.306305 225.260681,299.122986 
	C223.516190,298.396057 220.572174,297.900208 220.300812,296.779327 
	C219.468994,293.343506 222.722000,294.428772 224.556122,293.789307 
	C225.865067,293.332886 226.904388,292.103119 228.064026,291.218475 
	C227.794403,290.629761 227.524780,290.041046 227.255157,289.452362 
	C223.640305,289.961304 220.025452,290.470276 216.289825,291.893494 
M165.434677,301.764740 
	C164.367264,298.836121 163.041611,295.970886 162.302917,292.961578 
	C161.518280,289.765137 159.794708,289.573761 156.488647,290.645935 
	C158.985641,297.078400 161.152069,303.400909 163.896591,309.461670 
	C165.648087,313.329529 167.529892,313.243134 169.419861,309.188354 
	C172.171967,303.284058 174.421265,297.145416 176.971817,290.893768 
	C173.716812,289.100128 171.971817,290.053345 171.003021,292.943359 
	C169.964935,296.040039 169.043701,299.177277 167.920258,302.241333 
	C167.827423,302.494507 166.578262,302.323669 165.434677,301.764740 
M381.809509,312.130157 
	C383.475952,312.125000 385.272003,312.507690 386.772644,312.006256 
	C388.292267,311.498505 389.519745,310.116364 390.875183,309.117218 
	C389.618378,308.395599 388.406067,307.573730 387.088623,306.988708 
	C386.251434,306.616943 385.257996,306.596924 383.973663,306.349701 
	C383.973663,302.271271 383.897583,298.457916 383.993927,294.648926 
	C384.102020,290.373596 382.329956,288.986206 378.415466,290.368683 
	C378.598297,291.621155 378.864227,292.599274 378.863159,293.577148 
	C378.857513,298.739380 378.663818,303.905579 378.836273,309.060333 
	C378.871033,310.099915 380.205200,311.096008 381.809509,312.130157 
z"/>
<path fill="#0DB0B8" opacity="1.000000" stroke="none" 
	d="
M315.011841,266.454041 
	C328.937714,262.139801 339.819824,253.541092 350.068726,244.201141 
	C353.448639,241.121033 355.691498,236.650177 357.924194,232.528152 
	C358.759583,230.985886 358.864563,227.629166 357.909821,226.883820 
	C356.624603,225.880524 353.634979,225.906174 352.015076,226.736008 
	C349.016418,228.272156 346.491608,230.726669 343.750610,232.773483 
	C332.039429,241.518616 318.675873,246.078995 304.509460,249.143127 
	C296.670715,250.838638 289.709839,248.581863 282.378387,247.109253 
	C278.110809,246.252029 273.603821,246.633636 269.217957,246.288177 
	C267.965302,246.189514 266.759369,245.497482 265.783966,244.342529 
	C273.461273,240.923859 280.622406,242.963303 287.731354,244.942581 
	C295.102600,246.994858 302.351807,245.758759 309.454498,244.003387 
	C311.568878,243.480850 314.545898,240.895325 314.609802,239.162216 
	C314.676147,237.361923 312.036865,234.658020 309.968353,233.760071 
	C306.318909,232.175827 302.250732,231.345078 298.275238,230.766205 
	C289.459442,229.482590 281.827423,225.390762 274.942932,220.284317 
	C264.107605,212.247452 253.280075,212.548248 242.020264,218.582855 
	C237.011932,221.267014 232.248627,224.405334 227.286499,227.180878 
	C226.150192,227.816452 224.652557,227.805969 222.800003,228.205139 
	C223.635956,222.024796 228.721542,221.113815 232.161545,219.019012 
	C239.721329,214.415482 247.737793,210.600372 256.862244,210.118286 
	C257.027008,210.109589 257.205017,210.016830 257.352142,210.056030 
	C263.943329,211.811203 269.377350,209.370163 275.116333,206.262726 
	C277.830811,204.792923 282.118134,205.793564 285.594177,206.322830 
	C287.782806,206.656052 288.584229,207.236984 290.418518,204.721420 
	C292.856842,201.377441 297.408905,199.617401 300.901855,196.977081 
	C302.158325,196.027344 303.842560,194.507111 303.854889,193.232941 
	C303.932922,185.170212 303.685638,177.099045 303.285370,169.043594 
	C303.234772,168.024857 301.434265,166.105591 300.831207,166.247437 
	C288.687408,169.104141 280.942200,163.463760 274.806335,153.696259 
	C270.229248,146.410110 266.008667,138.703293 258.374329,133.888489 
	C255.897156,132.326202 253.518677,130.606415 251.029617,129.064285 
	C248.118652,127.260735 248.336884,126.009018 251.259171,124.264458 
	C263.819061,116.766388 277.081299,116.773750 289.885712,122.248367 
	C298.817230,126.067093 304.672760,133.216278 307.452484,143.552750 
	C309.569458,151.424820 307.273651,158.385086 307.192535,165.922485 
	C310.398895,154.585495 319.016693,148.067932 328.003662,142.021530 
	C333.582733,138.267944 338.568298,134.257996 340.313782,127.374794 
	C340.468628,126.764153 340.978058,126.243439 341.263489,125.777756 
	C349.991364,131.762421 353.427765,150.659027 347.482605,162.804535 
	C341.688721,174.641068 325.589905,186.603714 309.318634,181.983551 
	C308.538300,185.779129 307.845001,189.570709 306.960846,193.317245 
	C306.273895,196.228210 308.003632,197.552536 310.148468,198.607040 
	C316.892303,201.922607 319.098694,204.434708 321.300110,211.504669 
	C334.548584,207.987396 342.650299,212.383972 346.526276,225.548553 
	C351.578430,221.578323 358.302582,221.911606 361.796906,226.305405 
	C364.206726,229.335526 363.024139,236.180374 358.845245,240.606628 
	C346.355865,253.835419 332.740692,265.439301 314.527100,270.130615 
	C302.631927,273.194458 290.719971,272.580719 278.809509,270.386292 
	C267.623566,268.325348 256.495300,265.918915 245.263641,264.163818 
	C242.807281,263.779938 240.054108,265.685547 237.373459,266.206635 
	C235.655975,266.540497 233.820847,266.269226 232.050735,265.450623 
	C239.725708,261.042969 247.510483,260.056580 255.978226,262.298279 
	C269.956482,265.998749 284.128662,269.085541 298.693848,268.861694 
	C304.049194,268.779388 309.385223,267.440155 315.011841,266.454041 
M294.430176,128.973816 
	C285.162933,121.239029 265.988831,118.695305 255.015839,127.007248 
	C258.395081,129.523911 262.272125,131.538406 264.952942,134.600266 
	C269.671509,139.989532 273.959747,145.822464 277.880402,151.827286 
	C283.383789,160.256210 290.113342,165.351974 301.001160,162.389130 
	C298.011719,150.772659 289.222931,143.426208 281.194122,135.389984 
	C292.324951,138.284302 297.502045,147.722794 303.899475,156.520416 
	C304.462738,145.842514 303.191345,136.483276 294.430176,128.973816 
M343.930054,136.100494 
	C343.510956,135.259995 343.091858,134.419495 343.328339,134.893738 
	C337.012085,139.879501 330.667511,145.115067 324.080261,150.024979 
	C317.117462,155.214798 312.265289,161.574142 311.020813,170.732574 
	C314.302795,168.673447 317.536865,167.100281 320.217651,164.863892 
	C325.205475,160.702957 329.819031,156.096436 334.707733,151.811554 
	C335.900177,150.766403 337.555115,150.248947 338.997406,149.488892 
	C338.759613,151.059418 338.942505,152.866394 338.214569,154.161453 
	C334.010773,161.640305 326.520935,165.344910 319.702057,169.793900 
	C316.317078,172.002441 312.974121,174.212692 311.808289,178.588821 
	C331.617981,182.093536 353.327515,160.958557 343.930054,136.100494 
z"/>
<path fill="#454951" opacity="1.000000" stroke="none" 
	d="
M332.379730,311.134460 
	C329.316437,312.134613 327.299011,311.799835 326.415375,308.335358 
	C325.961365,306.555389 324.318695,305.078583 322.391815,302.265778 
	C322.135284,305.457672 322.332336,307.583099 321.682831,309.407074 
	C321.279449,310.539734 319.593018,311.215515 318.482483,312.096375 
	C317.912750,311.076050 316.875488,310.067261 316.849915,309.033478 
	C316.695801,302.795563 316.773285,296.551880 316.773285,290.043884 
	C321.782928,290.078308 327.814026,287.876282 330.796356,293.846558 
	C331.948059,296.152039 330.237305,299.887451 329.830658,302.971405 
	C329.350189,302.913025 328.869720,302.854645 328.389252,302.796265 
	C329.790863,305.493591 331.192474,308.190918 332.379730,311.134460 
z"/>
<path fill="#474B53" opacity="1.000000" stroke="none" 
	d="
M255.383286,308.338959 
	C250.454605,312.042938 245.172974,311.943115 239.737686,311.804230 
	C239.737686,304.430664 239.737686,297.529999 239.737686,290.067780 
	C245.211121,289.831879 250.991470,288.644379 255.433105,293.843994 
	C259.402252,298.490417 258.462585,303.266418 255.383286,308.338959 
M246.285538,306.707520 
	C249.422134,305.582825 253.293991,305.304932 252.957718,300.417114 
	C252.631439,295.674683 249.584747,294.608948 244.845764,294.716125 
	C245.077454,298.617462 245.308350,302.505127 246.285538,306.707520 
z"/>
<path fill="#484D54" opacity="1.000000" stroke="none" 
	d="
M293.001404,295.196472 
	C295.056091,289.299469 299.766876,289.493408 304.149017,290.015747 
	C308.298401,290.510345 311.853241,292.936951 312.656525,297.225159 
	C313.539337,301.937653 313.576874,306.814880 308.656342,310.008179 
	C304.626190,312.623688 300.714539,312.524872 296.533905,310.368591 
	C292.019531,308.040131 290.635437,302.706573 293.001404,295.196472 
M308.616913,298.277832 
	C306.318512,296.362885 304.827759,292.715179 300.879608,294.174103 
	C297.266693,295.509125 296.604706,298.720154 297.284180,301.939362 
	C297.659760,303.718933 299.441925,306.694885 300.309906,306.598877 
	C302.974548,306.304199 305.726227,305.114441 307.978699,303.586578 
	C308.906403,302.957275 308.647339,300.578400 308.616913,298.277832 
z"/>
<path fill="#474C53" opacity="1.000000" stroke="none" 
	d="
M271.668274,289.895905 
	C276.462402,290.980438 279.815094,293.143097 281.407074,297.691040 
	C283.138794,302.638184 280.953308,308.403473 276.304932,310.358826 
	C269.803345,313.093750 263.592102,311.586365 261.214752,306.696655 
	C257.272491,298.588226 262.456635,289.903107 271.668274,289.895905 
M275.276306,304.658051 
	C277.686493,301.133484 277.331390,297.343414 274.330322,295.228516 
	C270.907867,292.816650 267.520782,293.695953 266.006348,297.043701 
	C264.973297,299.327271 265.068573,303.132233 266.347137,305.226471 
	C268.563507,308.856628 271.808594,306.503998 275.276306,304.658051 
z"/>
<path fill="#494E55" opacity="1.000000" stroke="none" 
	d="
M435.939392,304.373688 
	C430.690155,314.078369 421.946075,313.815521 417.097412,307.712982 
	C414.326599,304.225647 414.138031,297.907349 416.934509,293.367767 
	C419.641327,288.973816 424.048492,289.521240 427.989746,290.094269 
	C433.207794,290.852936 435.690765,294.436676 435.854218,299.961670 
	C435.893616,301.293152 435.899231,302.625641 435.939392,304.373688 
M430.463959,304.867828 
	C433.207153,300.519867 432.235138,296.494843 427.504120,294.396790 
	C423.359741,292.558899 421.053955,295.710083 420.165436,298.802612 
	C419.579102,300.843567 420.408722,304.850220 421.806641,305.539886 
	C423.946808,306.595703 427.123535,305.550446 430.463959,304.867828 
z"/>
<path fill="#464B52" opacity="1.000000" stroke="none" 
	d="
M196.609924,311.808655 
	C195.173767,311.428131 193.655304,311.145935 193.073837,310.253357 
	C189.970779,305.490082 186.501007,305.541168 182.828400,310.115326 
	C181.888290,311.286224 179.494339,311.289795 177.565170,311.893219 
	C179.738449,304.986084 181.497742,299.022888 183.551178,293.162811 
	C183.994293,291.898254 185.365646,290.351013 186.546478,290.113770 
	C187.885086,289.844757 190.423782,290.503418 190.827896,291.448425 
	C193.419174,297.507904 195.592529,303.747925 197.803650,309.963989 
	C197.946945,310.366760 197.260498,311.064697 196.609924,311.808655 
z"/>
<path fill="#484C54" opacity="1.000000" stroke="none" 
	d="
M371.641083,298.419861 
	C373.173401,302.759064 374.562866,306.730560 375.952362,310.702087 
	C375.654633,311.120270 375.356903,311.538483 375.059174,311.956665 
	C373.526184,311.096405 371.716187,310.515961 370.511719,309.323792 
	C366.779388,305.629669 363.673492,305.897491 360.374176,310.092987 
	C359.572693,311.112183 357.667419,311.263336 356.269684,311.813599 
	C356.193665,310.453064 355.673553,308.923401 356.116455,307.760498 
	C358.344055,301.911285 360.823151,296.157837 363.311157,290.135437 
	C368.609894,289.633362 369.096100,290.071594 371.641083,298.419861 
z"/>
<path fill="#383D45" opacity="1.000000" stroke="none" 
	d="
M397.808075,290.855927 
	C397.861420,291.518494 397.796753,292.217804 397.989502,292.836975 
	C398.655182,294.975464 396.272247,298.801849 400.951477,298.758636 
	C406.279144,298.709442 407.281311,297.459564 406.872284,292.115875 
	C406.834534,291.622894 406.675537,291.139221 406.529816,290.446777 
	C409.132233,289.406982 410.955475,289.453766 410.933746,293.026245 
	C410.902405,298.179077 411.079437,303.340118 410.816345,308.479645 
	C410.753540,309.706360 409.301544,310.861938 408.488464,312.050232 
	C407.960724,310.854187 407.176392,309.700592 406.969513,308.451385 
	C406.704773,306.852661 406.905273,305.176849 406.905273,303.612091 
	C399.260468,301.858978 398.212982,302.550293 397.458252,309.673401 
	C396.010834,309.138306 394.231934,308.237274 394.157074,307.211884 
	C393.835754,302.809723 394.088226,298.369293 393.986755,293.946167 
	C393.921692,291.108124 395.621338,290.753632 397.808075,290.855927 
z"/>
<path fill="#494D55" opacity="1.000000" stroke="none" 
	d="
M340.089661,293.736084 
	C341.446106,297.244354 342.713409,300.364502 344.378479,304.463867 
	C346.087891,299.932922 347.984344,296.498474 348.592468,292.849335 
	C349.207672,289.157471 351.166565,289.819550 354.319824,290.213959 
	C352.124298,296.756165 350.177246,303.143768 347.731201,309.334198 
	C347.263092,310.518860 344.876801,311.318909 343.281189,311.510254 
	C342.594147,311.592682 341.360565,309.793945 340.900024,308.640350 
	C338.514557,302.665131 336.298676,296.622253 333.953461,290.417145 
	C337.406738,289.443909 339.727478,289.491913 340.089661,293.736084 
z"/>
<path fill="#43484F" opacity="1.000000" stroke="none" 
	d="
M216.350220,291.436371 
	C220.025452,290.470276 223.640305,289.961304 227.255157,289.452362 
	C227.524780,290.041046 227.794403,290.629761 228.064026,291.218475 
	C226.904388,292.103119 225.865067,293.332886 224.556122,293.789307 
	C222.722000,294.428772 219.468994,293.343506 220.300812,296.779327 
	C220.572174,297.900208 223.516190,298.396057 225.260681,299.122986 
	C225.700699,299.306305 226.228592,299.278748 227.532257,300.498535 
	C226.540695,301.235229 225.565903,301.996002 224.553024,302.702118 
	C223.475006,303.453644 222.360962,304.153442 221.262665,304.875824 
	C222.329758,305.553009 223.431168,306.182587 224.454758,306.920166 
	C225.580536,307.731323 226.634766,308.641785 227.720154,309.509003 
	C226.613510,310.393982 225.590927,311.872284 224.383148,312.043396 
	C221.668884,312.428009 218.862717,312.163971 216.289825,312.163971 
	C216.289825,304.961151 216.289825,298.427307 216.350220,291.436371 
z"/>
<path fill="#474B53" opacity="1.000000" stroke="none" 
	d="
M165.650528,302.057281 
	C166.578262,302.323669 167.827423,302.494507 167.920258,302.241333 
	C169.043701,299.177277 169.964935,296.040039 171.003021,292.943359 
	C171.971817,290.053345 173.716812,289.100128 176.971817,290.893768 
	C174.421265,297.145416 172.171967,303.284058 169.419861,309.188354 
	C167.529892,313.243134 165.648087,313.329529 163.896591,309.461670 
	C161.152069,303.400909 158.985641,297.078400 156.488647,290.645935 
	C159.794708,289.573761 161.518280,289.765137 162.302917,292.961578 
	C163.041611,295.970886 164.367264,298.836121 165.650528,302.057281 
z"/>
<path fill="#4F545B" opacity="1.000000" stroke="none" 
	d="
M381.374878,312.121155 
	C380.205200,311.096008 378.871033,310.099915 378.836273,309.060333 
	C378.663818,303.905579 378.857513,298.739380 378.863159,293.577148 
	C378.864227,292.599274 378.598297,291.621155 378.415466,290.368683 
	C382.329956,288.986206 384.102020,290.373596 383.993927,294.648926 
	C383.897583,298.457916 383.973663,302.271271 383.973663,306.349701 
	C385.257996,306.596924 386.251434,306.616943 387.088623,306.988708 
	C388.406067,307.573730 389.618378,308.395599 390.875183,309.117218 
	C389.519745,310.116364 388.292267,311.498505 386.772644,312.006256 
	C385.272003,312.507690 383.475952,312.125000 381.374878,312.121155 
z"/>
<path fill="#383D45" opacity="1.000000" stroke="none" 
	d="
M205.729065,290.786591 
	C205.798737,294.411713 205.980270,298.039185 205.904129,301.661255 
	C205.838364,304.790405 206.125534,307.229858 210.267227,307.034119 
	C211.122208,306.993683 212.049789,308.489532 212.475464,309.635559 
	C208.800262,309.993774 205.593521,309.993774 202.036972,309.993774 
	C202.036972,304.078522 202.125076,298.970978 202.002167,293.868530 
	C201.934235,291.047943 203.385666,290.480255 205.729065,290.786591 
z"/>
<path fill="#84878D" opacity="1.000000" stroke="none" 
	d="
M205.432755,290.549744 
	C203.385666,290.480255 201.934235,291.047943 202.002167,293.868530 
	C202.125076,298.970978 202.036972,304.078522 202.036972,309.993774 
	C205.593521,309.993774 208.800262,309.993774 212.461304,310.034698 
	C212.564255,310.357666 212.238342,310.844635 211.857849,310.891876 
	C200.958328,312.244354 200.957443,312.237213 200.957443,301.165527 
	C200.957428,297.549042 200.957428,293.932587 200.957428,290.121429 
	C202.532547,290.193604 203.834488,290.253265 205.432755,290.549744 
z"/>
<path fill="#787B81" opacity="1.000000" stroke="none" 
	d="
M397.554718,290.560730 
	C395.621338,290.753632 393.921692,291.108124 393.986755,293.946167 
	C394.088226,298.369293 393.835754,302.809723 394.157074,307.211884 
	C394.231934,308.237274 396.010834,309.138306 397.419220,310.113464 
	C396.639069,310.625153 395.465668,311.354248 394.238281,311.460602 
	C393.904785,311.489502 393.062683,309.646423 393.043640,308.651306 
	C392.929382,302.670135 392.986938,296.685699 392.986938,290.265503 
	C394.525391,290.265503 395.913391,290.265503 397.554718,290.560730 
z"/>
<path fill="#000000" opacity="1.000000" stroke="none" 
	d="
M294.687958,129.229095 
	C303.191345,136.483276 304.462738,145.842514 303.899475,156.520416 
	C297.502045,147.722794 292.324951,138.284302 281.194122,135.389984 
	C289.222931,143.426208 298.011719,150.772659 301.001160,162.389130 
	C290.113342,165.351974 283.383789,160.256210 277.880402,151.827286 
	C273.959747,145.822464 269.671509,139.989532 264.952942,134.600266 
	C262.272125,131.538406 258.395081,129.523911 255.015839,127.007248 
	C265.988831,118.695305 285.162933,121.239029 294.687958,129.229095 
z"/>
<path fill="#000000" opacity="1.000000" stroke="none" 
	d="
M343.961792,136.483780 
	C353.327515,160.958557 331.617981,182.093536 311.808289,178.588821 
	C312.974121,174.212692 316.317078,172.002441 319.702057,169.793900 
	C326.520935,165.344910 334.010773,161.640305 338.214569,154.161453 
	C338.942505,152.866394 338.759613,151.059418 338.997406,149.488892 
	C337.555115,150.248947 335.900177,150.766403 334.707733,151.811554 
	C329.819031,156.096436 325.205475,160.702957 320.217651,164.863892 
	C317.536865,167.100281 314.302795,168.673447 311.020813,170.732574 
	C312.265289,161.574142 317.117462,155.214798 324.080261,150.024979 
	C330.667511,145.115067 337.012085,139.879501 343.328339,134.893738 
	C343.091858,134.419495 343.510956,135.259995 343.961792,136.483780 
z"/>
<path fill="#000000" opacity="1.000000" stroke="none" 
	d="
M245.912384,306.550171 
	C245.308350,302.505127 245.077454,298.617462 244.845764,294.716125 
	C249.584747,294.608948 252.631439,295.674683 252.957718,300.417114 
	C253.293991,305.304932 249.422134,305.582825 245.912384,306.550171 
z"/>
<path fill="#000000" opacity="1.000000" stroke="none" 
	d="
M308.772491,298.636566 
	C308.647339,300.578400 308.906403,302.957275 307.978699,303.586578 
	C305.726227,305.114441 302.974548,306.304199 300.309906,306.598877 
	C299.441925,306.694885 297.659760,303.718933 297.284180,301.939362 
	C296.604706,298.720154 297.266693,295.509125 300.879608,294.174103 
	C304.827759,292.715179 306.318512,296.362885 308.772491,298.636566 
z"/>
<path fill="#000000" opacity="1.000000" stroke="none" 
	d="
M274.901886,304.780426 
	C271.808594,306.503998 268.563507,308.856628 266.347137,305.226471 
	C265.068573,303.132233 264.973297,299.327271 266.006348,297.043701 
	C267.520782,293.695953 270.907867,292.816650 274.330322,295.228516 
	C277.331390,297.343414 277.686493,301.133484 274.901886,304.780426 
z"/>
<path fill="#000000" opacity="1.000000" stroke="none" 
	d="
M430.162109,305.132446 
	C427.123535,305.550446 423.946808,306.595703 421.806641,305.539886 
	C420.408722,304.850220 419.579102,300.843567 420.165436,298.802612 
	C421.053955,295.710083 423.359741,292.558899 427.504120,294.396790 
	C432.235138,296.494843 433.207153,300.519867 430.162109,305.132446 
z"/>
</svg>